<svg id="e9wVdqBClvM1" xmlns="http://www.w3.org/2000/svg" xmlns:xlink="http://www.w3.org/1999/xlink" viewBox="0 0 640 640" shape-rendering="geometricPrecision" text-rendering="geometricPrecision"><g transform="matrix(3.338986 0 0 3.338987-600.885088-1731.807512)"><g><path fill="#000000FF" class="color" d="M241.6,527.7c-20.5,2.2-37.1,18.6-39.4,39.1-3,26.8,18,49.7,44.2,49.7c3.4,0,6.7-.4,9.9-1.1l1.4-.3l1-1c4.4-4.2,9.8-7.1,15.7-8.4l1.4-.3.3-.3c8.5-8,14-18.9,14.6-30.6c1.6-27.3-21.6-49.7-49.1-46.8ZM280.4,572c0,1.5-.1,3-.3,4.4-.5,3.9-4.8,6.1-8.4,4.4l-19.2-9.4c-2.2-1.1-3.5-3.5-3.2-6l2.4-19.9c.5-3.8,4.5-6.3,8-4.8c12.1,5.2,20.7,17.2,20.7,31.3Zm-39.7-26.1l1.6,18.9c.2,2.6-1.4,5.1-3.9,6l-18.2,6.6c-3.7,1.3-7.8-1.3-7.8-5.3c0,0,0-.1,0-.1c0-13.8,8.3-25.8,20.2-31.1c3.6-1.6,7.7,1,8.1,5Zm11.9,59.5c-2,.4-4.2.6-6.3.6-8.7,0-16.7-3.3-22.7-8.7-2.9-2.6-2.4-7.2.9-9.3l17.4-11c2.1-1.3,4.9-1.2,6.8.4l22.4,17.9c0,.2,0,.2-.1.4-6.8,1.7-13.1,5-18.4,9.7Z"/></g><g><g><path fill="#000000FF" class="color" d="M305.5,587.5c-8.9,0-17.3-3.5-23.6-9.9l-1.6-1.6.1-2.3c0-.6,0-1.1,0-1.7c0-7.3-2.3-14.2-6.5-20l-1.4-1.9.4-2.3c3.1-15.5,16.8-26.7,32.5-26.7c18.3,0,33.2,14.9,33.2,33.2s-14.8,33.2-33.1,33.2Zm-14.6-15.8c4.1,3.4,9.2,5.3,14.6,5.3c12.5,0,22.7-10.2,22.7-22.7s-10.2-22.7-22.7-22.7c-10.1,0-18.9,6.7-21.7,16.2c4.6,7.2,7,15.4,7.1,23.9Z"/></g></g><g><g><path fill="#000000FF" class="color" d="M311.1,566.4c-7.7,0-14-6.3-14-14s6.3-14,14-14s14,6.3,14,14c0,7.8-6.3,14-14,14Zm0-17.4c-1.9,0-3.5,1.6-3.5,3.5s1.6,3.5,3.5,3.5s3.5-1.6,3.5-3.5-1.6-3.5-3.5-3.5Z"/></g></g><g><g><path fill="#000000FF" class="color" d="M241.1,707.9c-11.7,0-21.3-9.6-21.3-21.3s9.6-21.3,21.3-21.3s21.3,9.6,21.3,21.3c0,11.8-9.6,21.3-21.3,21.3Zm0-32.1c-6,0-10.8,4.8-10.8,10.8s4.8,10.8,10.8,10.8s10.8-4.8,10.8-10.8-4.9-10.8-10.8-10.8Z"/></g></g><g><path fill="#000000FF" class="color" d="M285.5,594.5c-27.2-2.2-49.8,20.4-47.7,47.6c1.7,21.4,19,38.7,40.4,40.4c27.2,2.2,49.8-20.4,47.6-47.6-1.5-21.4-18.9-38.7-40.3-40.4Zm6.1,73.7L285,651.8c-.5-1.2-1.7-1.8-2.9-1.5s-2,1.5-1.8,2.7c.3,2.2.6,4.4.8,6.6.3,2.6,1.1,5.3,1.1,7.8c0,2.7-1.8,4.6-4.5,4.5-1.6,0-3.3-.6-4.9-1-1.7-.5-3.3-1.1-4.9-1.8-3.9-1.8-7.4-4.3-10.4-7.4-1-1-.9-2.6.2-3.6l13-11.2c.9-.8,1.1-2.2.4-3.2s-2-1.4-3.1-.8l-14.6,7.5c-1.3.7-3,0-3.4-1.4-1.1-3.3-1.7-6.9-1.7-10.6c0-4.1.8-8,2.1-11.7.5-1.3,1.9-1.9,3.1-1.4l16.8,6.1c1.2.4,2.5-.1,3-1.2s.2-2.4-.9-3.1l-13.7-8.9c-1.3-.8-1.5-2.7-.4-3.8c6.1-6,14.4-9.8,23.7-9.8c2.8,0,5.6.4,8.2,1c1.5.4,2.2,2,1.6,3.4l-7.1,15.7c-.5,1.1-.1,2.5,1,3.1s2.4.4,3.2-.6l11.4-14.3c.9-1.1,2.5-1.2,3.5-.3c6.6,5.6,11,13.7,11.8,22.9.1,1.5-1.1,2.7-2.5,2.7l-18.6-.5c-1.2,0-2.3.9-2.5,2.1s.6,2.4,1.8,2.7l18,4.9c1.4.4,2.2,1.9,1.6,3.3-3.3,8.4-10,15.2-18.4,18.7-1.4.7-2.9.1-3.4-1.2Z"/></g><g><g><path fill="#000000FF" class="color" d="M196.6,650c-8.7,0-15.8-7.1-15.8-15.8s7.1-15.8,15.8-15.8s15.8,7.1,15.8,15.8c-.1,8.8-7.1,15.8-15.8,15.8Zm0-21.1c-2.9,0-5.3,2.4-5.3,5.3s2.4,5.3,5.3,5.3s5.3-2.4,5.3-5.3-2.4-5.3-5.3-5.3Z"/></g></g><g><path fill="#000000FF" class="color" d="M370.6,650.5c-2-21.3-19.9-38.1-41.3-38.9-5.3-.2-10.5.6-15.5,2.3l-6.1,2.1l3.2,5.5c3,5.1,4.6,11,4.6,17c0,13.9-8.7,26.6-21.7,31.5l-3.2,1.2c-1.5.6-2,2.3-1.2,3.6l1.4,2.1c7.5,11.8,20.1,19.8,34,20.7c26.5,1.8,48.3-20.5,45.8-47.1Zm-22.9,26.6l-12.4-11.8c-.9-.9-2.4-.9-3.4-.1v0c-1,.8-1.2,2.3-.5,3.4l8.6,12.8c.9,1.4.3,3.3-1.2,3.8-3.5,1.3-7.2,2-11.1,2-9.2,0-17.8-3.8-23.9-10.4c13.5-7.8,22.2-22.4,22.2-38.4c0-5.5-1-11-3-16c1.5-.2,3.1-.3,4.6-.3c6.5,0,12.6,1.9,17.7,5.3c2.5,1.7,2.8,5.3.6,7.3l-18.7,17.1c-.8.8-.9,2-.3,2.9v0c.7.9,1.9,1.1,2.9.5l21.6-13.7c2.5-1.6,5.9-.4,6.9,2.4c1.2,3.4,1.9,7,1.9,10.8c0,8.6-3.4,16.5-8.9,22.3-.9,1.1-2.5,1.1-3.6.1Z"/></g></g></svg>