<svg id="ebsuflxWtVQ1" xmlns="http://www.w3.org/2000/svg" xmlns:xlink="http://www.w3.org/1999/xlink" viewBox="0 0 1000 1000" shape-rendering="geometricPrecision" text-rendering="geometricPrecision"><g><g transform="matrix(.1 0 0-.1 0 512)"><path d="M4639.8,5002.2c-568.9-59.4-1233.5-304.5-1754.5-643.6-371.6-243.3-812.1-647.4-1101.4-1011.3-591.9-743.2-929-1689.4-846.6-2380.9c103.4-883,714.5-1331.2,2053.3-1505.5c522.9-69,770-78.5,2011.2-78.5c1243.1,0,1473,9.6,2018.9,78.5C8152.7,-395.4,8792.4,-20,8995.4,619.8c247.1,781.5-93.8,1909.7-848.5,2813.7-923.2,1107.1-2248.7,1699-3507.1,1568.7Zm1271.8-791c137.9-63.2,241.3-160.9,318-302.6c61.3-113,65.1-132.2,65.1-302.6c0-157.1-7.7-197.3-51.7-291.2-61.3-132.2-183.9-258.6-312.2-321.8-82.4-40.2-122.6-47.9-277.7-47.9-155.2,0-197.3,7.7-277.7,46-126.4,63.2-250.9,191.5-312.2,323.7-44.1,93.9-51.7,134.1-51.7,281.6c0,145.6,7.7,189.6,49.8,277.7c158.8,340.9,526.6,486.5,850.3,337.1ZM4285.4,2973.8c222.2-109.2,360.1-323.7,360.1-565c1.9-189.6-46-312.2-172.4-448.2-143.7-157.1-252.8-203-476.9-203-160.9,0-180,3.8-293.1,65.1-141.8,76.6-220.3,160.9-289.2,308.4-67,141.7-70.9,385-7.7,521c46,101.5,172.4,245.2,264.3,302.6c176.3,109.1,417.6,116.8,614.9,19.1Zm3286.9-829.4c136-61.3,254.7-180.1,319.9-318c42.1-90,49.8-134.1,49.8-270.1s-7.7-180-49.8-270.1c-65.1-137.9-183.9-256.7-321.8-321.8-157-72.8-367.7-70.9-528.6,3.8-145.6,69-281.6,210.7-335.2,350.5-46,126.4-51.7,327.5-9.6,450.1c122.5,354.6,536.3,532.7,875.3,375.6ZM2655.4,1724.9c132.2-68.9,262.4-212.6,314.1-346.7c118.8-319.9-24.9-666.6-333.3-812.1-97.7-46-137.9-53.6-277.7-53.6-136,1.9-180,9.6-270.1,53.6-132.2,63.2-252.8,189.6-318,333.3-57.5,124.5-65.1,329.4-17.2,461.6c65.1,178.1,216.5,329.5,394.6,394.6c132.2,47.9,383.1,32.6,507.6-30.7ZM5404,1372.5c193.5-57.5,329.5-176.2,419.5-371.6c70.9-151.3,69-367.8-1.9-521-67.1-143.7-187.7-270.1-319.9-335.2-91.9-46-130.3-53.6-270.1-51.7-128.3,0-182,9.6-252.8,44-204.9,99.6-339,273.9-379.2,496.1-46,260.5,76.6,536.3,300.7,668.5c174.3,101.6,327.5,122.6,503.7,70.9Z" transform="translate(0-260.49194)" class="color" fill="#000000FF"/><path d="M3231.9,-1358.9c-28.7-461.6-95.8-754.7-337.1-1451.9-233.7-680-289.2-944.3-249-1168.4c57.5-317.9,279.7-511.4,733.6-641.7c400.3-113,1172.2-176.2,1928.8-155.1c1714.4,46,2266,362,2099.3,1201-17.2,88.1-116.8,415.6-222.2,726-272,808.3-342.9,1130.1-344.8,1530.4v180L6693,-1152c-528.7-42.1-846.6-53.7-1681.7-53.7-831.3,0-1356.1,17.2-1668.3,53.7l-97.7,11.5-13.4-218.4Z" transform="translate(-37.44232 260.50806)" fill="#f6d89a"/></g></g></svg>